<?xml version="1.0" standalone="no"?><!DOCTYPE svg PUBLIC "-//W3C//DTD SVG 1.1//EN" "http://www.w3.org/Graphics/SVG/1.1/DTD/svg11.dtd"><svg t="1725197068949" class="icon" viewBox="0 0 1024 1024" version="1.1" xmlns="http://www.w3.org/2000/svg" p-id="11592" width="256" height="256" xmlns:xlink="http://www.w3.org/1999/xlink"><path d="M466.24 40.064a41.92 41.92 0 0 1 60.544 0c51.712 55.04 154.56 184.576 185.856 371.648 23.68 141.696-43.136 423.552-56.384 477.056a11.776 11.776 0 0 1-11.456 8.896l-295.68-0.128a11.776 11.776 0 0 1-11.52-8.96c-13.248-53.504-80.384-335.424-56.832-477.12 31.104-187.008 133.76-316.416 185.472-371.392z" fill="#CF404F" p-id="11593"></path><path d="M285.248 387.392C319.616 218.752 410.88 100.224 461.44 45.184c56.32 73.216 162.88 228.928 170.624 367.168l-346.88-24.96z" fill="#FF5365" p-id="11594"></path><path d="M332.8 635.904l-112.384 51.008a22.912 22.912 0 0 0-13.44 19.84c-1.792 44.8-6.336 186.624 6.592 282.624a18.112 18.112 0 0 0 30.208 10.112l153.536-143.68-64.576-219.904z" fill="#CF404F" p-id="11595"></path><path d="M659.584 636.096l112.384 51.072a23.04 23.04 0 0 1 13.44 19.904c1.92 44.8 6.528 186.56-6.272 282.56a18.112 18.112 0 0 1-30.208 10.112L595.2 855.936l64.32-219.84z" fill="#B43744" p-id="11596"></path><path d="M346.88 684.096l50.432 171.712-145.664 136.32c-8.32-92.928-4.544-209.792-2.944-249.664a22.912 22.912 0 0 1 13.44-19.84l84.736-38.528z" fill="#FF5365" p-id="11597"></path><path d="M645.504 684.224L595.2 855.936l145.792 136.448c8.192-92.928 4.352-209.792 2.688-249.664a23.04 23.04 0 0 0-13.44-19.904l-84.8-38.592z" fill="#D53F4F" p-id="11598"></path><path d="M699.776 351.68c5.184 19.84 9.472 39.808 12.864 60.032 23.68 141.696-43.136 423.552-56.384 477.056a11.776 11.776 0 0 1-11.456 8.896l-295.68-0.128a11.776 11.776 0 0 1-11.52-8.96c-13.248-53.504-80.384-335.424-56.832-477.12 3.392-20.16 7.68-40.192 12.8-60.032a1814.08 1814.08 0 0 1 203.072-11.136c69.504 0 137.472 3.904 203.136 11.392z" fill="#FD9B12" p-id="11599"></path><path d="M325.376 836.48c-23.104-102.784-63.744-310.08-44.608-424.96 3.392-20.224 7.68-40.32 12.8-60.096 61.312-6.848 122.944-10.496 184.64-11.072l18.496 52.992S463.616 458.24 610.496 552.64c74.432 47.808-52.352 283.904-113.6 283.904l-171.52-0.128z" fill="#FDB812" p-id="11600"></path><path d="M417.28 166.912a5.44 5.44 0 0 0-10.048-3.392c-25.792 43.52-80.768 142.208-55.68 153.92 29.952 14.016 54.528-50.688 65.728-150.528z" fill="#FFFFFF" fill-opacity=".3" p-id="11601"></path><path d="M496.64 279.616c62.72 0 113.792 51.008 113.792 113.792 0 62.72-50.88 113.728-113.664 113.664a113.92 113.92 0 0 1-113.792-113.792c0-62.72 50.88-113.728 113.664-113.664z" fill="#FFDDDD" p-id="11602"></path><path d="M496.64 312.96a80.32 80.32 0 1 1-80.384 80.384c0-44.416 36.032-80.448 80.384-80.384z" fill="#1E2D4F" p-id="11603"></path><path d="M618.24 897.664l-242.56-0.128 28.416 45.952c4.352 7.04 11.328 11.904 19.328 13.696l53.12 11.712c13.44 3.008 27.456 3.008 40.96 0l53.056-11.648a30.4 30.4 0 0 0 19.328-13.696l28.416-45.888z" fill="#3A407D" p-id="11604"></path><path d="M417.472 379.52c6.528-37.824 39.488-66.56 79.168-66.56l0.128 160.768a80.64 80.64 0 0 1-79.296-66.624V379.52z" fill="#536DA8" p-id="11605"></path><path d="M523.392 721.28a13.312 13.312 0 0 0-13.248-13.248h-26.56a13.248 13.248 0 0 0-13.248 13.248l0.128 269.184c0 7.36 5.952 13.248 13.248 13.312h26.56a13.248 13.248 0 0 0 13.248-13.312l-0.128-269.184z" fill="#CF404F" p-id="11606"></path></svg>